<svg width="252" height="52" viewBox="0 0 252 52" fill="none" xmlns="http://www.w3.org/2000/svg">
<g clip-path="url(#clip0_527_217)">
<path d="M72.6597 19.546L73.3357 15.906C74.9824 15.9233 76.3084 15.88 77.3137 15.776C78.3364 15.6547 79.1077 15.438 79.6277 15.126C80.1651 14.7967 80.5117 14.3373 80.6677 13.748C80.8411 13.1413 80.9017 12.37 80.8497 11.434L80.2777 -0.0320014H83.9177L84.4897 11.616C84.5417 12.656 84.6631 13.4533 84.8537 14.008C85.0444 14.5627 85.3304 14.9527 85.7117 15.178C86.0931 15.386 86.5957 15.49 87.2197 15.49C87.8611 15.49 88.3204 15.6633 88.5977 16.01C88.8924 16.3393 89.0397 16.7553 89.0397 17.258C89.0397 17.7953 88.8577 18.246 88.4937 18.61C88.1297 18.9567 87.6184 19.13 86.9597 19.13C86.1971 19.13 85.5124 19.0347 84.9057 18.844C84.2991 18.6533 83.7964 18.324 83.3977 17.856C82.9991 17.3707 82.7304 16.7207 82.5917 15.906H83.7617C83.3631 16.7553 82.8171 17.4313 82.1237 17.934C81.4477 18.4367 80.6331 18.8007 79.6797 19.026C78.7437 19.2687 77.6864 19.416 76.5077 19.468C75.3291 19.5373 74.0464 19.5633 72.6597 19.546ZM71.4117 13.384L70.7357 10.81C71.3424 10.654 71.8364 10.5153 72.2177 10.394C72.6164 10.2727 72.9111 10.1513 73.1017 10.03C73.2924 9.90867 73.3877 9.78733 73.3877 9.666C73.3877 9.51 73.3097 9.34533 73.1537 9.172C72.9977 8.99867 72.8244 8.79933 72.6337 8.574C72.4431 8.34867 72.2697 8.09733 72.1137 7.82C71.9577 7.54267 71.8797 7.222 71.8797 6.858C71.8797 6.42467 72.0011 6.01733 72.2437 5.636C72.4864 5.23733 72.8764 4.856 73.4137 4.492C73.9684 4.11067 74.6964 3.738 75.5977 3.374L76.7157 5.688C75.9877 5.98267 75.4937 6.24267 75.2337 6.468C74.9911 6.676 74.8697 6.87533 74.8697 7.066C74.8697 7.222 74.9477 7.404 75.1037 7.612C75.2597 7.82 75.4331 8.054 75.6237 8.314C75.8317 8.55667 76.0137 8.834 76.1697 9.146C76.3257 9.44067 76.4037 9.76133 76.4037 10.108C76.4037 10.3853 76.3431 10.6713 76.2217 10.966C76.1177 11.2607 75.8924 11.5467 75.5457 11.824C75.2164 12.1013 74.7224 12.37 74.0637 12.63C73.4051 12.89 72.5211 13.1413 71.4117 13.384ZM72.6597 19.546C70.7877 19.546 69.2017 19.3987 67.9017 19.104C66.6191 18.8267 65.5704 18.428 64.7557 17.908C63.9584 17.3707 63.3777 16.7467 63.0137 16.036C62.6497 15.3253 62.4677 14.5453 62.4677 13.696C62.4677 13.1413 62.5111 12.5867 62.5977 12.032C62.7017 11.46 62.8231 10.9053 62.9617 10.368C63.1177 9.83067 63.2564 9.34533 63.3777 8.912L66.6277 9.666C66.5584 9.978 66.4804 10.316 66.3937 10.68C66.3071 11.044 66.2377 11.3993 66.1857 11.746C66.1337 12.0753 66.1077 12.3787 66.1077 12.656C66.1077 13.2973 66.3331 13.8693 66.7837 14.372C67.2517 14.8573 68.0144 15.2387 69.0717 15.516C70.1291 15.776 71.5504 15.906 73.3357 15.906L73.8557 18.714L72.6597 19.546ZM86.9502 19.13L87.2102 15.49C88.0249 15.49 88.5969 15.412 88.9262 15.256C89.2729 15.0827 89.4809 14.7707 89.5502 14.32C89.6195 13.852 89.6369 13.176 89.6022 12.292L89.1862 -0.0320014H92.8782L93.3202 12.266C93.3549 13.1327 93.4589 13.8 93.6322 14.268C93.8055 14.736 94.0915 15.0567 94.4902 15.23C94.9062 15.4033 95.4609 15.49 96.1542 15.49C96.8129 15.49 97.2809 15.6633 97.5582 16.01C97.8355 16.3393 97.9742 16.7553 97.9742 17.258C97.9742 17.7953 97.7922 18.246 97.4282 18.61C97.0642 18.9567 96.5529 19.13 95.8942 19.13C95.1315 19.13 94.4209 19.0433 93.7622 18.87C93.1035 18.6967 92.5575 18.3673 92.1242 17.882C91.6909 17.3967 91.4049 16.6947 91.2662 15.776L92.4102 15.802C92.1155 16.7033 91.7342 17.3967 91.2662 17.882C90.7982 18.35 90.2089 18.6793 89.4982 18.87C88.8049 19.0433 87.9555 19.13 86.9502 19.13ZM95.8877 19.13L96.1477 15.49H103.636C104.294 15.49 104.762 15.6633 105.04 16.01C105.334 16.3393 105.482 16.7553 105.482 17.258C105.482 17.7953 105.3 18.246 104.936 18.61C104.572 18.9567 104.052 19.13 103.376 19.13H95.8877ZM103.403 19.13L103.663 15.49H111.151C111.81 15.49 112.278 15.6633 112.555 16.01C112.85 16.3393 112.997 16.7553 112.997 17.258C112.997 17.7953 112.815 18.246 112.451 18.61C112.087 18.9567 111.567 19.13 110.891 19.13H103.403ZM110.919 19.13L111.179 15.49H118.667C119.326 15.49 119.794 15.6633 120.071 16.01C120.366 16.3393 120.513 16.7553 120.513 17.258C120.513 17.7953 120.331 18.246 119.967 18.61C119.603 18.9567 119.083 19.13 118.407 19.13H110.919ZM118.435 19.13L118.695 15.49H126.183C126.841 15.49 127.309 15.6633 127.587 16.01C127.881 16.3393 128.029 16.7553 128.029 17.258C128.029 17.7953 127.847 18.246 127.483 18.61C127.119 18.9567 126.599 19.13 125.923 19.13H118.435ZM125.95 19.13L126.21 15.49H133.698C134.357 15.49 134.825 15.6633 135.102 16.01C135.397 16.3393 135.544 16.7553 135.544 17.258C135.544 17.7953 135.362 18.246 134.998 18.61C134.634 18.9567 134.114 19.13 133.438 19.13H125.95ZM133.466 19.13L133.726 15.49H141.214C141.872 15.49 142.34 15.6633 142.618 16.01C142.912 16.3393 143.06 16.7553 143.06 17.258C143.06 17.7953 142.878 18.246 142.514 18.61C142.15 18.9567 141.63 19.13 140.954 19.13H133.466ZM140.981 19.13L141.241 15.516C141.917 15.5333 142.541 15.5247 143.113 15.49C143.685 15.4553 144.197 15.4033 144.647 15.334C145.115 15.2647 145.523 15.1867 145.869 15.1C146.233 15.0133 146.537 14.9353 146.779 14.866C147.369 14.6753 147.871 14.45 148.287 14.19C148.703 13.9127 149.024 13.6007 149.249 13.254C149.475 12.9073 149.587 12.5347 149.587 12.136C149.587 11.824 149.518 11.512 149.379 11.2C149.258 10.8707 149.076 10.602 148.833 10.394C148.591 10.186 148.305 10.082 147.975 10.082C147.663 10.082 147.377 10.1773 147.117 10.368C146.857 10.5587 146.649 10.8187 146.493 11.148C146.337 11.46 146.259 11.824 146.259 12.24C146.259 12.604 146.346 12.9507 146.519 13.28C146.693 13.592 146.935 13.8953 147.247 14.19C147.559 14.4847 147.932 14.762 148.365 15.022L144.907 16.348C144.526 15.984 144.162 15.594 143.815 15.178C143.486 14.762 143.209 14.294 142.983 13.774C142.775 13.2367 142.671 12.6387 142.671 11.98C142.671 11.1827 142.827 10.4547 143.139 9.796C143.451 9.13733 143.867 8.574 144.387 8.106C144.907 7.62067 145.488 7.248 146.129 6.988C146.771 6.728 147.412 6.598 148.053 6.598C149.093 6.598 149.995 6.84067 150.757 7.326C151.52 7.81133 152.109 8.444 152.525 9.224C152.959 10.004 153.175 10.8533 153.175 11.772C153.175 12.6213 153.019 13.384 152.707 14.06C152.395 14.7187 151.971 15.308 151.433 15.828C150.913 16.3307 150.333 16.7727 149.691 17.154C149.067 17.5353 148.435 17.856 147.793 18.116C147.481 18.2547 147.091 18.3847 146.623 18.506C146.155 18.6273 145.627 18.74 145.037 18.844C144.448 18.9307 143.815 19 143.139 19.052C142.463 19.104 141.744 19.13 140.981 19.13ZM154.709 19.13C153.704 19.13 152.716 19.078 151.745 18.974C150.775 18.87 149.873 18.714 149.041 18.506C148.227 18.298 147.516 18.0467 146.909 17.752L148.703 14.944C149.223 15.0827 149.83 15.1953 150.523 15.282C151.234 15.3513 151.971 15.4033 152.733 15.438C153.513 15.4727 154.259 15.49 154.969 15.49C155.628 15.49 156.096 15.6633 156.373 16.01C156.668 16.3393 156.815 16.7553 156.815 17.258C156.815 17.7953 156.633 18.246 156.269 18.61C155.905 18.9567 155.385 19.13 154.709 19.13ZM148.079 4.18C147.542 4.18 147.083 3.998 146.701 3.634C146.337 3.27 146.155 2.81933 146.155 2.282C146.155 1.74467 146.337 1.28533 146.701 0.903999C147.083 0.522665 147.542 0.331999 148.079 0.331999C148.599 0.331999 149.041 0.522665 149.405 0.903999C149.787 1.28533 149.977 1.74467 149.977 2.282C149.977 2.81933 149.787 3.27 149.405 3.634C149.041 3.998 148.599 4.18 148.079 4.18ZM154.743 19.13L155.003 15.49C155.8 15.49 156.372 15.412 156.719 15.256C157.066 15.0827 157.274 14.7707 157.343 14.32C157.412 13.852 157.43 13.176 157.395 12.292L156.927 -0.0320014H160.593L161.113 12.552C161.148 13.5573 161.104 14.4673 160.983 15.282C160.879 16.0793 160.61 16.764 160.177 17.336C159.761 17.908 159.111 18.35 158.227 18.662C157.36 18.974 156.199 19.13 154.743 19.13ZM164.542 19L163.996 -0.0320014H167.636L168.182 19H164.542ZM187.781 19.546L188.457 15.906C190.104 15.9233 191.43 15.88 192.435 15.776C193.458 15.6547 194.229 15.438 194.749 15.126C195.286 14.7967 195.633 14.3373 195.789 13.748C195.962 13.1413 196.023 12.37 195.971 11.434L195.399 -0.0320014H199.039L199.611 11.616C199.663 12.656 199.784 13.4533 199.975 14.008C200.166 14.5627 200.452 14.9527 200.833 15.178C201.214 15.386 201.717 15.49 202.341 15.49C202.982 15.49 203.442 15.6633 203.719 16.01C204.014 16.3393 204.161 16.7553 204.161 17.258C204.161 17.7953 203.979 18.246 203.615 18.61C203.251 18.9567 202.74 19.13 202.081 19.13C201.318 19.13 200.634 19.0347 200.027 18.844C199.42 18.6533 198.918 18.324 198.519 17.856C198.12 17.3707 197.852 16.7207 197.713 15.906H198.883C198.484 16.7553 197.938 17.4313 197.245 17.934C196.569 18.4367 195.754 18.8007 194.801 19.026C193.865 19.2687 192.808 19.416 191.629 19.468C190.45 19.5373 189.168 19.5633 187.781 19.546ZM186.533 13.384L185.857 10.81C186.464 10.654 186.958 10.5153 187.339 10.394C187.738 10.2727 188.032 10.1513 188.223 10.03C188.414 9.90867 188.509 9.78733 188.509 9.666C188.509 9.51 188.431 9.34533 188.275 9.172C188.119 8.99867 187.946 8.79933 187.755 8.574C187.564 8.34867 187.391 8.09733 187.235 7.82C187.079 7.54267 187.001 7.222 187.001 6.858C187.001 6.42467 187.122 6.01733 187.365 5.636C187.608 5.23733 187.998 4.856 188.535 4.492C189.09 4.11067 189.818 3.738 190.719 3.374L191.837 5.688C191.109 5.98267 190.615 6.24267 190.355 6.468C190.112 6.676 189.991 6.87533 189.991 7.066C189.991 7.222 190.069 7.404 190.225 7.612C190.381 7.82 190.554 8.054 190.745 8.314C190.953 8.55667 191.135 8.834 191.291 9.146C191.447 9.44067 191.525 9.76133 191.525 10.108C191.525 10.3853 191.464 10.6713 191.343 10.966C191.239 11.2607 191.014 11.5467 190.667 11.824C190.338 12.1013 189.844 12.37 189.185 12.63C188.526 12.89 187.642 13.1413 186.533 13.384ZM187.781 19.546C185.909 19.546 184.323 19.3987 183.023 19.104C181.74 18.8267 180.692 18.428 179.877 17.908C179.08 17.3707 178.499 16.7467 178.135 16.036C177.771 15.3253 177.589 14.5453 177.589 13.696C177.589 13.1413 177.632 12.5867 177.719 12.032C177.823 11.46 177.944 10.9053 178.083 10.368C178.239 9.83067 178.378 9.34533 178.499 8.912L181.749 9.666C181.68 9.978 181.602 10.316 181.515 10.68C181.428 11.044 181.359 11.3993 181.307 11.746C181.255 12.0753 181.229 12.3787 181.229 12.656C181.229 13.2973 181.454 13.8693 181.905 14.372C182.373 14.8573 183.136 15.2387 184.193 15.516C185.25 15.776 186.672 15.906 188.457 15.906L188.977 18.714L187.781 19.546ZM202.071 19.13L202.331 15.49H209.819C210.478 15.49 210.946 15.6633 211.223 16.01C211.518 16.3393 211.665 16.7553 211.665 17.258C211.665 17.7953 211.483 18.246 211.119 18.61C210.755 18.9567 210.235 19.13 209.559 19.13H202.071ZM209.587 19.13L209.847 15.49H217.335C217.994 15.49 218.462 15.6633 218.739 16.01C219.034 16.3393 219.181 16.7553 219.181 17.258C219.181 17.7953 218.999 18.246 218.635 18.61C218.271 18.9567 217.751 19.13 217.075 19.13H209.587ZM217.103 19.13L217.363 15.49H224.851C225.509 15.49 225.977 15.6633 226.255 16.01C226.549 16.3393 226.697 16.7553 226.697 17.258C226.697 17.7953 226.515 18.246 226.151 18.61C225.787 18.9567 225.267 19.13 224.591 19.13H217.103ZM224.618 19.13L224.878 15.49H232.366C233.025 15.49 233.493 15.6633 233.77 16.01C234.065 16.3393 234.212 16.7553 234.212 17.258C234.212 17.7953 234.03 18.246 233.666 18.61C233.302 18.9567 232.782 19.13 232.106 19.13H224.618ZM232.134 19.13L232.394 15.49C233.052 15.49 233.572 15.4293 233.954 15.308C234.352 15.1867 234.664 14.944 234.89 14.58C235.132 14.1987 235.332 13.644 235.488 12.916C235.661 12.188 235.834 11.2173 236.008 10.004L239.414 10.576C239.379 10.836 239.327 11.1393 239.258 11.486C239.206 11.8327 239.154 12.188 239.102 12.552C239.067 12.8987 239.05 13.228 239.05 13.54C239.05 13.956 239.136 14.3113 239.31 14.606C239.5 14.8833 239.83 15.1 240.298 15.256C240.783 15.412 241.476 15.49 242.378 15.49C243.036 15.49 243.504 15.6633 243.782 16.01C244.059 16.3393 244.198 16.7553 244.198 17.258C244.198 17.7953 244.016 18.246 243.652 18.61C243.305 18.9567 242.794 19.13 242.118 19.13C240.922 19.13 239.951 19.0173 239.206 18.792C238.46 18.5667 237.906 18.1853 237.542 17.648C237.178 17.1107 236.944 16.374 236.84 15.438H238.088C237.776 16.27 237.412 16.9373 236.996 17.44C236.58 17.9253 236.112 18.2893 235.592 18.532C235.072 18.7747 234.517 18.9307 233.928 19C233.356 19.0867 232.758 19.13 232.134 19.13ZM237.438 7.352C236.9 7.352 236.441 7.17 236.06 6.806C235.696 6.442 235.514 5.99133 235.514 5.454C235.514 4.91667 235.696 4.45733 236.06 4.076C236.441 3.69467 236.9 3.504 237.438 3.504C237.958 3.504 238.4 3.69467 238.764 4.076C239.145 4.45733 239.336 4.91667 239.336 5.454C239.336 5.99133 239.145 6.442 238.764 6.806C238.4 7.17 237.958 7.352 237.438 7.352ZM242.112 19.13L242.372 15.49C243.135 15.49 243.733 15.438 244.166 15.334C244.617 15.23 244.938 15.0393 245.128 14.762C245.319 14.4673 245.414 14.0513 245.414 13.514C245.414 13.0287 245.345 12.448 245.206 11.772C245.085 11.096 244.92 10.394 244.712 9.666C244.504 8.938 244.296 8.27067 244.088 7.664L247.676 6.676C247.884 7.26533 248.092 7.95 248.3 8.73C248.508 9.51 248.682 10.316 248.82 11.148C248.976 11.9627 249.054 12.7513 249.054 13.514C249.054 14.4673 248.933 15.2733 248.69 15.932C248.448 16.5733 248.11 17.1107 247.676 17.544C247.26 17.96 246.758 18.2893 246.168 18.532C245.596 18.7573 244.964 18.9133 244.27 19C243.577 19.0867 242.858 19.13 242.112 19.13ZM245.31 25.11C244.808 25.11 244.374 24.9367 244.01 24.59C243.664 24.2433 243.49 23.8187 243.49 23.316C243.49 22.8133 243.664 22.3713 244.01 21.99C244.374 21.626 244.808 21.444 245.31 21.444C245.813 21.444 246.238 21.626 246.584 21.99C246.948 22.3713 247.13 22.8133 247.13 23.316C247.13 23.8187 246.948 24.2433 246.584 24.59C246.238 24.9367 245.813 25.11 245.31 25.11ZM70.6133 32.54C72.2426 32.54 73.6639 32.8607 74.8773 33.502C76.0906 34.1433 77.0266 35.0967 77.6853 36.362C78.3613 37.61 78.6993 39.1267 78.6993 40.912V51H75.3193V46.32H65.8553V51H62.5273V40.912C62.5273 39.1267 62.8566 37.61 63.5153 36.362C64.1913 35.0967 65.1359 34.1433 66.3493 33.502C67.5626 32.8607 68.9839 32.54 70.6133 32.54ZM75.3193 43.486V40.6C75.3193 38.9187 74.9033 37.6533 74.0713 36.804C73.2393 35.9373 72.0779 35.504 70.5873 35.504C69.0966 35.504 67.9353 35.9373 67.1033 36.804C66.2713 37.6533 65.8553 38.9187 65.8553 40.6V43.486H75.3193ZM87.6914 51.182C86.2527 51.182 85.1261 50.792 84.3114 50.012C83.5141 49.2147 83.1154 48.0967 83.1154 46.658V31.708H86.3654V46.424C86.3654 47.8107 87.0154 48.504 88.3154 48.504C88.7487 48.504 89.1387 48.4173 89.4854 48.244L89.6414 50.844C89.0347 51.0693 88.3847 51.182 87.6914 51.182ZM107.303 35.504C105.743 35.504 104.565 35.8507 103.767 36.544C102.97 37.2373 102.571 38.26 102.571 39.612V41.172H110.501V44.032H102.571V51H99.1913V39.612C99.1913 37.4107 99.8933 35.686 101.297 34.438C102.719 33.1727 104.669 32.54 107.147 32.54C108.187 32.54 109.158 32.6527 110.059 32.878C110.961 33.1033 111.749 33.4327 112.425 33.866L111.359 36.622C110.285 35.8767 108.933 35.504 107.303 35.504ZM127.689 37.116V51H124.595V49.206C124.058 49.8647 123.391 50.3587 122.593 50.688C121.813 51.0173 120.947 51.182 119.993 51.182C118.641 51.182 117.428 50.8873 116.353 50.298C115.296 49.7087 114.464 48.8767 113.857 47.802C113.268 46.7273 112.973 45.4793 112.973 44.058C112.973 42.6367 113.268 41.3973 113.857 40.34C114.464 39.2653 115.296 38.4333 116.353 37.844C117.428 37.2547 118.641 36.96 119.993 36.96C120.895 36.96 121.718 37.116 122.463 37.428C123.226 37.74 123.885 38.1993 124.439 38.806V37.116H127.689ZM120.357 48.4C121.553 48.4 122.541 48.0013 123.321 47.204C124.101 46.4067 124.491 45.358 124.491 44.058C124.491 42.758 124.101 41.7093 123.321 40.912C122.541 40.1147 121.553 39.716 120.357 39.716C119.161 39.716 118.173 40.1147 117.393 40.912C116.631 41.7093 116.249 42.758 116.249 44.058C116.249 45.358 116.631 46.4067 117.393 47.204C118.173 48.0013 119.161 48.4 120.357 48.4ZM136.518 51.182C135.079 51.182 133.952 50.792 133.138 50.012C132.34 49.2147 131.942 48.0967 131.942 46.658V31.708H135.192V46.424C135.192 47.8107 135.842 48.504 137.142 48.504C137.575 48.504 137.965 48.4173 138.312 48.244L138.468 50.844C137.861 51.0693 137.211 51.182 136.518 51.182ZM153.994 37.116V51H150.9V49.206C150.363 49.8647 149.695 50.3587 148.898 50.688C148.118 51.0173 147.251 51.182 146.298 51.182C144.946 51.182 143.733 50.8873 142.658 50.298C141.601 49.7087 140.769 48.8767 140.162 47.802C139.573 46.7273 139.278 45.4793 139.278 44.058C139.278 42.6367 139.573 41.3973 140.162 40.34C140.769 39.2653 141.601 38.4333 142.658 37.844C143.733 37.2547 144.946 36.96 146.298 36.96C147.199 36.96 148.023 37.116 148.768 37.428C149.531 37.74 150.189 38.1993 150.744 38.806V37.116H153.994ZM146.662 48.4C147.858 48.4 148.846 48.0013 149.626 47.204C150.406 46.4067 150.796 45.358 150.796 44.058C150.796 42.758 150.406 41.7093 149.626 40.912C148.846 40.1147 147.858 39.716 146.662 39.716C145.466 39.716 144.478 40.1147 143.698 40.912C142.935 41.7093 142.554 42.758 142.554 44.058C142.554 45.358 142.935 46.4067 143.698 47.204C144.478 48.0013 145.466 48.4 146.662 48.4ZM163.914 45.046L161.496 47.334V51H158.246V31.708H161.496V43.356L168.23 37.116H172.13L166.332 42.94L172.676 51H168.724L163.914 45.046ZM195.169 41.536C196.174 41.8653 196.972 42.42 197.561 43.2C198.15 43.9627 198.445 44.916 198.445 46.06C198.445 47.6373 197.838 48.8593 196.625 49.726C195.412 50.5753 193.644 51 191.321 51H182.273V32.8H190.801C192.95 32.8 194.606 33.2247 195.767 34.074C196.928 34.906 197.509 36.0587 197.509 37.532C197.509 38.4333 197.301 39.2307 196.885 39.924C196.469 40.6173 195.897 41.1547 195.169 41.536ZM185.653 35.452V40.47H190.437C191.616 40.47 192.517 40.262 193.141 39.846C193.782 39.4127 194.103 38.7887 194.103 37.974C194.103 37.142 193.782 36.518 193.141 36.102C192.517 35.6687 191.616 35.452 190.437 35.452H185.653ZM191.113 48.348C193.73 48.348 195.039 47.4727 195.039 45.722C195.039 43.9713 193.73 43.096 191.113 43.096H185.653V48.348H191.113ZM215.312 37.116V51H212.218V49.206C211.681 49.8647 211.014 50.3587 210.216 50.688C209.436 51.0173 208.57 51.182 207.616 51.182C206.264 51.182 205.051 50.8873 203.976 50.298C202.919 49.7087 202.087 48.8767 201.48 47.802C200.891 46.7273 200.596 45.4793 200.596 44.058C200.596 42.6367 200.891 41.3973 201.48 40.34C202.087 39.2653 202.919 38.4333 203.976 37.844C205.051 37.2547 206.264 36.96 207.616 36.96C208.518 36.96 209.341 37.116 210.086 37.428C210.849 37.74 211.508 38.1993 212.062 38.806V37.116H215.312ZM207.98 48.4C209.176 48.4 210.164 48.0013 210.944 47.204C211.724 46.4067 212.114 45.358 212.114 44.058C212.114 42.758 211.724 41.7093 210.944 40.912C210.164 40.1147 209.176 39.716 207.98 39.716C206.784 39.716 205.796 40.1147 205.016 40.912C204.254 41.7093 203.872 42.758 203.872 44.058C203.872 45.358 204.254 46.4067 205.016 47.204C205.796 48.0013 206.784 48.4 207.98 48.4ZM227.443 36.96C229.193 36.96 230.597 37.4713 231.655 38.494C232.712 39.5167 233.241 41.0333 233.241 43.044V51H229.991V43.46C229.991 42.2467 229.705 41.3367 229.133 40.73C228.561 40.106 227.746 39.794 226.689 39.794C225.493 39.794 224.548 40.158 223.855 40.886C223.161 41.5967 222.815 42.628 222.815 43.98V51H219.565V37.116H222.659V38.91C223.196 38.2687 223.872 37.7833 224.687 37.454C225.501 37.1247 226.42 36.96 227.443 36.96ZM243.031 45.046L240.613 47.334V51H237.363V31.708H240.613V43.356L247.347 37.116H251.247L245.449 42.94L251.793 51H247.841L243.031 45.046Z" fill="url(#paint0_linear_527_217)"/>
<path d="M50 0H22.4756V11.575H50V0Z" fill="url(#paint1_linear_527_217)"/>
<path d="M11.4446 0.498574L22.3684 11.6843V27.1469L11.4791 15.9964L11.4446 0.498574Z" fill="url(#paint2_linear_527_217)"/>
<path d="M0 5.33045L11.273 15.7992V28.0365L0.204714 16.7028L0 5.33045Z" fill="url(#paint3_linear_527_217)"/>
<path d="M22.1967 50.9804H11.2729V28.0366H44.6739V39.5076H22.1967V50.9804Z" fill="url(#paint4_linear_527_217)"/>
</g>
<defs>
<linearGradient id="paint0_linear_527_217" x1="252" y1="43.0659" x2="60" y2="8.9341" gradientUnits="userSpaceOnUse">
<stop stop-color="#FFA37B"/>
<stop offset="0.906" stop-color="#836DD6"/>
</linearGradient>
<linearGradient id="paint1_linear_527_217" x1="31.8954" y1="8.15755" x2="45.3784" y2="15.0017" gradientUnits="userSpaceOnUse">
<stop stop-color="#836DD6"/>
<stop offset="1" stop-color="#FFA37B"/>
</linearGradient>
<linearGradient id="paint2_linear_527_217" x1="15.1831" y1="19.2792" x2="21.8619" y2="19.8637" gradientUnits="userSpaceOnUse">
<stop stop-color="#836DD6"/>
<stop offset="1" stop-color="#FFA37B"/>
</linearGradient>
<linearGradient id="paint3_linear_527_217" x1="3.858" y1="21.3328" x2="10.7259" y2="22.0607" gradientUnits="userSpaceOnUse">
<stop stop-color="#836DD6"/>
<stop offset="1" stop-color="#FFA37B"/>
</linearGradient>
<linearGradient id="paint4_linear_527_217" x1="22.7038" y1="44.2065" x2="41.4693" y2="50.0381" gradientUnits="userSpaceOnUse">
<stop stop-color="#836DD6"/>
<stop offset="1" stop-color="#FFA37B"/>
</linearGradient>
<clipPath id="clip0_527_217">
<rect width="252" height="52" fill="white"/>
</clipPath>
</defs>
</svg>
